<?xml version="1.0" encoding="UTF-8" standalone="no"?>
<!-- Generator: Adobe Illustrator 16.0.0, SVG Export Plug-In . SVG Version: 6.00 Build 0)  -->

<svg
   xmlns:dc="http://purl.org/dc/elements/1.1/"
   xmlns:cc="http://creativecommons.org/ns#"
   xmlns:rdf="http://www.w3.org/1999/02/22-rdf-syntax-ns#"
   xmlns:svg="http://www.w3.org/2000/svg"
   xmlns="http://www.w3.org/2000/svg"
   xmlns:xlink="http://www.w3.org/1999/xlink"
   xmlns:sodipodi="http://sodipodi.sourceforge.net/DTD/sodipodi-0.dtd"
   xmlns:inkscape="http://www.inkscape.org/namespaces/inkscape"
   version="1.1"
   x="0px"
   y="0px"
   width="24px"
   height="24px"
   viewBox="0 0 24 24"
   enable-background="new 0 0 24 24"
   xml:space="preserve"
   id="svg841"
   sodipodi:docname="responsive.svg"
   inkscape:version="0.92.1 r15371"><metadata
     id="metadata847"><rdf:RDF><cc:Work
         rdf:about=""><dc:format>image/svg+xml</dc:format><dc:type
           rdf:resource="http://purl.org/dc/dcmitype/StillImage" /><dc:title></dc:title></cc:Work></rdf:RDF></metadata><defs
     id="defs845"><linearGradient
       inkscape:collect="always"
       id="linearGradient1412"><stop
         style="stop-color:#af00fa;stop-opacity:1"
         offset="0"
         id="stop1408" /><stop
         style="stop-color:#ea00e2;stop-opacity:1"
         offset="1"
         id="stop1410" /></linearGradient><linearGradient
       inkscape:collect="always"
       xlink:href="#linearGradient1412"
       id="linearGradient1414"
       x1="3.8644068"
       y1="6.1016951"
       x2="17.20339"
       y2="17.745762"
       gradientUnits="userSpaceOnUse" /></defs><sodipodi:namedview
     pagecolor="#ffffff"
     bordercolor="#666666"
     borderopacity="1"
     objecttolerance="10"
     gridtolerance="10"
     guidetolerance="10"
     inkscape:pageopacity="0"
     inkscape:pageshadow="2"
     inkscape:window-width="1920"
     inkscape:window-height="1001"
     id="namedview843"
     showgrid="false"
     inkscape:zoom="9.8333333"
     inkscape:cx="-4.7288136"
     inkscape:cy="12"
     inkscape:window-x="-9"
     inkscape:window-y="-9"
     inkscape:window-maximized="1"
     inkscape:current-layer="svg841" /><g
     id="Frames-24px"><rect
       fill="none"
       width="24"
       height="24"
       id="rect829" /></g><g
     id="Solid"
     style="fill-opacity:1;fill:url(#linearGradient1414)"><g
       id="g838"
       style="fill-opacity:1;fill:url(#linearGradient1414)"><path
         fill="#757575"
         d="M8,4.5C8,3.672,7.328,3,6.5,3S5,3.672,5,4.5V5h3V4.5z"
         id="path832"
         style="fill-opacity:1;fill:url(#linearGradient1414)" /><polygon
         fill="#757575"
         points="8,15 8,6 5,6 5,15 6.5,18   "
         id="polygon834"
         style="fill-opacity:1;fill:url(#linearGradient1414)" /><path
         fill="#757575"
         d="M21,7H10v2h5v10H3V7C1.897,7,1,7.898,1,9v10c0,1.103,0.897,2,2,2h18c1.103,0,2-0.897,2-2V9    C23,7.898,22.103,7,21,7z M17,9h4l0,4h-4V9z M17,19v-4h4.001l0,4H17z"
         id="path836"
         style="fill-opacity:1;fill:url(#linearGradient1414)" /></g></g></svg>