<?xml version="1.0" encoding="UTF-8" standalone="no"?>
<!-- Generator: Adobe Illustrator 16.0.0, SVG Export Plug-In . SVG Version: 6.00 Build 0)  -->

<svg
   xmlns:dc="http://purl.org/dc/elements/1.1/"
   xmlns:cc="http://creativecommons.org/ns#"
   xmlns:rdf="http://www.w3.org/1999/02/22-rdf-syntax-ns#"
   xmlns:svg="http://www.w3.org/2000/svg"
   xmlns="http://www.w3.org/2000/svg"
   xmlns:xlink="http://www.w3.org/1999/xlink"
   xmlns:sodipodi="http://sodipodi.sourceforge.net/DTD/sodipodi-0.dtd"
   xmlns:inkscape="http://www.inkscape.org/namespaces/inkscape"
   version="1.1"
   x="0px"
   y="0px"
   width="24px"
   height="24px"
   viewBox="0 0 24 24"
   enable-background="new 0 0 24 24"
   xml:space="preserve"
   id="svg3169"
   sodipodi:docname="ecommerce.svg"
   inkscape:version="0.92.1 r15371"><metadata
     id="metadata3175"><rdf:RDF><cc:Work
         rdf:about=""><dc:format>image/svg+xml</dc:format><dc:type
           rdf:resource="http://purl.org/dc/dcmitype/StillImage" /><dc:title></dc:title></cc:Work></rdf:RDF></metadata><defs
     id="defs3173"><linearGradient
       inkscape:collect="always"
       id="linearGradient3181"><stop
         style="stop-color:#af00fa;stop-opacity:1"
         offset="0"
         id="stop3177" /><stop
         style="stop-color:#ea00e2;stop-opacity:1"
         offset="1"
         id="stop3179" /></linearGradient><linearGradient
       inkscape:collect="always"
       xlink:href="#linearGradient3181"
       id="linearGradient3183"
       x1="5.8983049"
       y1="6.3050847"
       x2="17.694914"
       y2="18.610168"
       gradientUnits="userSpaceOnUse" /></defs><sodipodi:namedview
     pagecolor="#ffffff"
     bordercolor="#666666"
     borderopacity="1"
     objecttolerance="10"
     gridtolerance="10"
     guidetolerance="10"
     inkscape:pageopacity="0"
     inkscape:pageshadow="2"
     inkscape:window-width="1920"
     inkscape:window-height="1001"
     id="namedview3171"
     showgrid="false"
     inkscape:zoom="9.8333333"
     inkscape:cx="-4.7288136"
     inkscape:cy="12"
     inkscape:window-x="-9"
     inkscape:window-y="-9"
     inkscape:window-maximized="1"
     inkscape:current-layer="svg3169" /><g
     id="Frames-24px"><rect
       fill="none"
       width="24"
       height="24"
       id="rect3151" /></g><g
     id="Solid"
     style="fill-opacity:1;fill:url(#linearGradient3183)"><g
       id="g3166"
       style="fill-opacity:1;fill:url(#linearGradient3183)"><path
         fill="#757575"
         d="M21,17h-0.105l-0.901-8.11C19.938,8.383,19.51,8,19,8h-2V7h2c0.552,0,1-0.448,1-1V3c0-0.552-0.448-1-1-1    h-6c-0.552,0-1,0.448-1,1v3c0,0.552,0.448,1,1,1h2v1h-4V4c0-0.347-0.18-0.668-0.474-0.85C10.23,2.967,9.863,2.951,9.553,3.106    L8,3.882L6.447,3.106C6.137,2.951,5.77,2.967,5.474,3.15C5.18,3.332,5,3.653,5,4v4C4.49,8,4.063,8.383,4.006,8.89L3.105,17H3    c-0.552,0-1,0.448-1,1v4c0,0.552,0.448,1,1,1h18c0.552,0,1-0.448,1-1v-4C22,17.448,21.552,17,21,17z M14,5V4h4v1H14z M7,5.619    l0.553,0.275c0.281,0.141,0.613,0.141,0.895,0L9,5.619V8H7V5.619z M5.895,10H6h12.105l0.778,7H5.117L5.895,10z M20,21H4v-2h16V21z    "
         id="path3154"
         style="fill-opacity:1;fill:url(#linearGradient3183)" /><rect
         x="7"
         y="11"
         fill="#757575"
         width="4"
         height="2"
         id="rect3156"
         style="fill-opacity:1;fill:url(#linearGradient3183)" /><circle
         fill="#757575"
         cx="13"
         cy="12"
         r="1"
         id="circle3158"
         style="fill-opacity:1;fill:url(#linearGradient3183)" /><circle
         fill="#757575"
         cx="16"
         cy="12"
         r="1"
         id="circle3160"
         style="fill-opacity:1;fill:url(#linearGradient3183)" /><circle
         fill="#757575"
         cx="13"
         cy="15"
         r="1"
         id="circle3162"
         style="fill-opacity:1;fill:url(#linearGradient3183)" /><circle
         fill="#757575"
         cx="16"
         cy="15"
         r="1"
         id="circle3164"
         style="fill-opacity:1;fill:url(#linearGradient3183)" /></g></g></svg>