<?xml version="1.0" encoding="UTF-8" standalone="no"?>
<!-- Generator: Adobe Illustrator 16.0.0, SVG Export Plug-In . SVG Version: 6.00 Build 0)  -->

<svg
   xmlns:dc="http://purl.org/dc/elements/1.1/"
   xmlns:cc="http://creativecommons.org/ns#"
   xmlns:rdf="http://www.w3.org/1999/02/22-rdf-syntax-ns#"
   xmlns:svg="http://www.w3.org/2000/svg"
   xmlns="http://www.w3.org/2000/svg"
   xmlns:xlink="http://www.w3.org/1999/xlink"
   xmlns:sodipodi="http://sodipodi.sourceforge.net/DTD/sodipodi-0.dtd"
   xmlns:inkscape="http://www.inkscape.org/namespaces/inkscape"
   version="1.1"
   x="0px"
   y="0px"
   width="24px"
   height="24px"
   viewBox="0 0 24 24"
   enable-background="new 0 0 24 24"
   xml:space="preserve"
   id="svg1997"
   sodipodi:docname="responsive.svg"
   inkscape:version="0.92.1 r15371"><metadata
     id="metadata2003"><rdf:RDF><cc:Work
         rdf:about=""><dc:format>image/svg+xml</dc:format><dc:type
           rdf:resource="http://purl.org/dc/dcmitype/StillImage" /><dc:title></dc:title></cc:Work></rdf:RDF></metadata><defs
     id="defs2001"><linearGradient
       inkscape:collect="always"
       id="linearGradient2009"><stop
         style="stop-color:#ea00e2;stop-opacity:1"
         offset="0"
         id="stop2005" /><stop
         style="stop-color:#af00fa;stop-opacity:1"
         offset="1"
         id="stop2007" /></linearGradient><linearGradient
       inkscape:collect="always"
       xlink:href="#linearGradient2009"
       id="linearGradient2011"
       x1="17.627119"
       y1="19.033899"
       x2="6.5423727"
       y2="6.2203388"
       gradientUnits="userSpaceOnUse" /></defs><sodipodi:namedview
     pagecolor="#ffffff"
     bordercolor="#666666"
     borderopacity="1"
     objecttolerance="10"
     gridtolerance="10"
     guidetolerance="10"
     inkscape:pageopacity="0"
     inkscape:pageshadow="2"
     inkscape:window-width="1920"
     inkscape:window-height="1001"
     id="namedview1999"
     showgrid="false"
     inkscape:zoom="9.8333333"
     inkscape:cx="-4.7288136"
     inkscape:cy="12"
     inkscape:window-x="-9"
     inkscape:window-y="-9"
     inkscape:window-maximized="1"
     inkscape:current-layer="svg1997" /><g
     id="Frames-24px"><rect
       fill="none"
       width="24"
       height="24"
       id="rect1987" /></g><g
     id="Outline"
     style="fill-opacity:1;fill:url(#linearGradient2011)"><g
       id="g1994"
       style="fill-opacity:1;fill:url(#linearGradient2011)"><path
         fill="#757575"
         d="M12,20H4v-1h8v-2H4V7h12v1h2V4c0-1.103-0.897-2-2-2H4C2.897,2,2,2.897,2,4v16c0,1.103,0.897,2,2,2h8V20z     M4,4h12v1H4V4z"
         id="path1990"
         style="fill-opacity:1;fill:url(#linearGradient2011)" /><path
         fill="#757575"
         d="M20,10h-4c-1.103,0-2,0.897-2,2v8c0,1.103,0.897,2,2,2h4c1.103,0,2-0.897,2-2v-8    C22,10.897,21.103,10,20,10z M20,12l0.001,5H16v-5H20z M16,20v-1h4.001v1H16z"
         id="path1992"
         style="fill-opacity:1;fill:url(#linearGradient2011)" /></g></g></svg>