<?xml version="1.0" encoding="UTF-8" standalone="no"?>
<!-- Generator: Adobe Illustrator 16.0.0, SVG Export Plug-In . SVG Version: 6.00 Build 0)  -->

<svg
   xmlns:dc="http://purl.org/dc/elements/1.1/"
   xmlns:cc="http://creativecommons.org/ns#"
   xmlns:rdf="http://www.w3.org/1999/02/22-rdf-syntax-ns#"
   xmlns:svg="http://www.w3.org/2000/svg"
   xmlns="http://www.w3.org/2000/svg"
   xmlns:xlink="http://www.w3.org/1999/xlink"
   xmlns:sodipodi="http://sodipodi.sourceforge.net/DTD/sodipodi-0.dtd"
   xmlns:inkscape="http://www.inkscape.org/namespaces/inkscape"
   version="1.1"
   x="0px"
   y="0px"
   width="24px"
   height="24px"
   viewBox="0 0 24 24"
   enable-background="new 0 0 24 24"
   xml:space="preserve"
   id="svg1428"
   sodipodi:docname="seo.svg"
   inkscape:version="0.92.1 r15371"><metadata
     id="metadata1434"><rdf:RDF><cc:Work
         rdf:about=""><dc:format>image/svg+xml</dc:format><dc:type
           rdf:resource="http://purl.org/dc/dcmitype/StillImage" /><dc:title></dc:title></cc:Work></rdf:RDF></metadata><defs
     id="defs1432"><linearGradient
       inkscape:collect="always"
       id="linearGradient1440"><stop
         style="stop-color:#af00fa;stop-opacity:1"
         offset="0"
         id="stop1436" /><stop
         style="stop-color:#ea00e2;stop-opacity:1"
         offset="1"
         id="stop1438" /></linearGradient><linearGradient
       inkscape:collect="always"
       xlink:href="#linearGradient1440"
       id="linearGradient1442"
       x1="6"
       y1="6"
       x2="15.762712"
       y2="14.949153"
       gradientUnits="userSpaceOnUse" /></defs><sodipodi:namedview
     pagecolor="#ffffff"
     bordercolor="#666666"
     borderopacity="1"
     objecttolerance="10"
     gridtolerance="10"
     guidetolerance="10"
     inkscape:pageopacity="0"
     inkscape:pageshadow="2"
     inkscape:window-width="1920"
     inkscape:window-height="1001"
     id="namedview1430"
     showgrid="false"
     inkscape:zoom="9.8333333"
     inkscape:cx="-4.7288136"
     inkscape:cy="12"
     inkscape:window-x="-9"
     inkscape:window-y="-9"
     inkscape:window-maximized="1"
     inkscape:current-layer="svg1428" /><g
     id="Frames-24px"><rect
       fill="none"
       width="24"
       height="24"
       id="rect1416" /></g><g
     id="Solid"
     style="fill-opacity:1;fill:url(#linearGradient1442)"><g
       id="g1425"
       style="fill-opacity:1;fill:url(#linearGradient1442)"><path
         fill="#757575"
         d="M21,2H3C1.897,2,1,2.898,1,4v16c0,1.104,0.897,2,2,2h18c1.103,0,2-0.896,2-2V4C23,2.898,22.103,2,21,2z     M21,6h-8V4h8L21,6z M8,6V4h3v2H8z M6,4v2H3V4H6z M3,20V8h17.999l-0.002,12H3z"
         id="path1419"
         style="fill-opacity:1;fill:url(#linearGradient1442)" /><rect
         x="13"
         y="15"
         fill="#757575"
         width="5"
         height="2"
         id="rect1421"
         style="fill-opacity:1;fill:url(#linearGradient1442)" /><polygon
         fill="#757575"
         points="6.293,11.708 8.586,14 6.293,16.294 7.707,17.708 11.414,14 7.707,10.294   "
         id="polygon1423"
         style="fill-opacity:1;fill:url(#linearGradient1442)" /></g></g></svg>